# xmcd CD database file
#
# Track frame offsets:
#	150
#	38837
#	69874
#	100897
#	135724
#	165684
#	190532
#	225846
#
# Disc length: 3410 seconds
#
# Revision: 6
# Processed by: cddbd v1.5.2PL0 Copyright (c) Steve Scherf et al.
# Submitted via: CDex 1.70beta2
#
DISCID=580d5008
DTITLE=Wayne Shorter - JuJu
DYEAR=1965
DGENRE=Jazz
TTITLE0=JuJu
TTITLE1=Deluge
TTITLE2=House Of Jade
TTITLE3=Mahjong
TTITLE4=Yes Or No
TTITLE5=Twelve More Bars To Go
TTITLE6=Juju (2)
TTITLE7=House Of Jade (2)
EXTD=YEAR: 1965
EXTT0=
EXTT1=
EXTT2=
EXTT3=
EXTT4=
EXTT5=
EXTT6=
EXTT7=
PLAYORDER=
